<?xml version="1.0" standalone="no"?>
<!DOCTYPE svg PUBLIC "-//W3C//DTD SVG 20010904//EN"
 "http://www.w3.org/TR/2001/REC-SVG-20010904/DTD/svg10.dtd">
<svg version="1.0" xmlns="http://www.w3.org/2000/svg"
 width="353.000000pt" height="353.000000pt" viewBox="0 0 353.000000 353.000000"
 preserveAspectRatio="xMidYMid meet">

<g transform="translate(0.000000,353.000000) scale(0.100000,-0.100000)"
fill="#000000" stroke="none">
<path d="M1560 3519 c-398 -49 -741 -213 -1024 -488 -369 -360 -552 -819 -533
-1336 27 -718 477 -1335 1157 -1588 435 -161 948 -134 1375 73 877 426 1241
1486 811 2365 -250 510 -727 864 -1296 962 -105 18 -389 25 -490 12z m201
-899 c13 -7 19 -7 19 0 0 6 25 10 60 10 l60 0 0 -155 c0 -175 -9 -214 -59
-239 -40 -21 -162 -21 -201 -1 -31 16 -60 51 -60 72 0 21 119 17 142 -4 16
-14 20 -15 32 -2 19 19 30 59 17 59 -5 0 -13 -4 -16 -10 -9 -15 -92 -12 -124
5 -80 41 -81 217 -2 260 31 17 104 19 132 5z m607 -532 c-3 -7 6 -21 19 -31
27 -22 30 -62 7 -95 -12 -17 -25 -22 -61 -22 -86 0 -111 61 -50 125 32 34 94
50 85 23z m-1368 -38 c0 -16 -7 -20 -32 -22 l-33 -1 33 -4 c24 -3 32 -9 32
-24 0 -14 -7 -19 -30 -19 -23 0 -30 -4 -30 -20 0 -15 -7 -20 -25 -20 -24 0
-25 2 -25 65 l0 65 55 0 c48 0 55 -2 55 -20z m120 -25 c0 -33 4 -45 15 -45 11
0 15 12 15 45 0 42 2 45 25 45 25 0 26 -1 23 -62 l-3 -63 -39 -3 c-22 -2 -50
-1 -63 2 -21 6 -23 12 -23 66 0 57 1 60 25 60 23 0 25 -4 25 -45z m234 18 l15
-28 1 28 c0 22 4 27 25 27 24 0 25 -2 25 -65 0 -65 0 -65 -29 -65 -18 0 -34 8
-44 23 l-16 22 0 -22 c-1 -18 -7 -23 -26 -23 -24 0 -25 2 -25 65 l0 65 30 0
c22 0 33 -7 44 -27z m267 17 c14 -8 19 -21 19 -55 0 -53 -16 -65 -89 -65 l-51
0 0 65 0 65 51 0 c28 0 59 -5 70 -10z m204 -42 c10 -29 20 -58 22 -64 3 -8
-19 -12 -71 -11 -42 0 -76 2 -76 5 0 3 10 31 21 63 20 55 24 59 53 59 30 0 34
-4 51 -52z m217 35 c10 -9 18 -22 18 -30 0 -16 -51 -18 -68 -1 -16 16 -37 -4
-29 -26 7 -17 37 -22 37 -6 0 6 14 10 30 10 34 0 38 -14 13 -42 -19 -21 -102
-25 -121 -6 -19 19 -15 95 6 107 27 16 93 13 114 -6z m138 -48 c0 -63 -1 -65
-25 -65 -24 0 -25 2 -25 65 0 63 1 65 25 65 24 0 25 -2 25 -65z m374 38 l15
-28 1 28 c0 22 4 27 25 27 24 0 25 -2 25 -65 0 -65 0 -65 -29 -65 -18 0 -34 8
-44 23 l-16 22 0 -22 c-1 -18 -7 -23 -26 -23 -24 0 -25 2 -25 65 l0 65 30 0
c22 0 33 -7 44 -27z m-1389 -208 c-56 -51 -63 -54 -112 -55 -29 0 -53 2 -53 5
0 3 15 28 33 55 l32 50 80 0 80 0 -60 -55z m1455 5 l0 -50 -70 0 -70 0 0 50 0
50 70 0 70 0 0 -50z m-1930 -85 c17 -9 30 -11 30 -5 0 6 29 10 70 10 l70 0 0
-183 c0 -158 -2 -187 -18 -217 -28 -50 -77 -72 -166 -72 -89 1 -139 20 -166
64 -33 54 -28 58 55 58 42 0 75 -4 75 -10 0 -5 8 -14 19 -19 26 -14 49 6 57
48 l7 34 -24 -16 c-33 -24 -115 -22 -155 2 -66 40 -86 188 -35 260 41 57 121
77 181 46z m454 4 c73 -18 126 -92 126 -175 l0 -34 -125 0 c-77 0 -125 -4
-125 -10 0 -17 39 -50 58 -50 10 0 27 7 38 15 12 9 42 14 82 15 53 0 62 -3 62
-18 0 -24 -46 -71 -86 -88 -43 -18 -145 -18 -187 0 -68 28 -116 120 -102 195
23 126 124 184 259 150z m488 -28 c28 -31 28 -32 28 -176 l0 -145 -70 0 -70 0
0 104 c0 120 -4 136 -34 136 -40 0 -46 -18 -46 -132 l0 -108 -70 0 -70 0 0
175 0 175 65 0 c49 0 65 -3 65 -14 0 -11 8 -10 38 6 56 29 127 20 164 -21z
m362 10 c42 -26 76 -92 76 -149 l0 -41 -126 -3 -126 -3 22 -27 c24 -31 60 -37
80 -13 9 11 32 15 81 15 38 0 69 -3 69 -7 0 -5 -9 -22 -20 -40 -60 -99 -260
-99 -333 -1 -22 29 -33 108 -23 162 9 46 50 94 101 118 53 25 149 20 199 -11z
m394 5 c28 -14 62 -65 62 -91 0 -3 -29 -5 -65 -5 -52 0 -69 4 -85 20 -16 16
-24 18 -41 10 -30 -17 -16 -26 65 -44 98 -22 126 -47 126 -113 0 -57 -16 -84
-64 -107 -42 -20 -164 -21 -210 -2 -40 17 -76 60 -76 92 0 23 3 24 65 24 55 0
66 -3 75 -21 9 -15 19 -19 43 -17 44 4 42 30 -3 40 -143 33 -170 53 -170 124
0 51 21 80 75 100 51 18 158 13 203 -10z m508 13 c48 -12 94 -56 94 -90 0 -17
-8 -19 -65 -19 -49 0 -67 4 -71 15 -8 19 -68 21 -62 3 3 -7 16 -16 29 -20 123
-34 140 -41 160 -66 16 -21 20 -36 16 -70 -9 -78 -62 -112 -177 -112 -84 0
-141 24 -165 70 -28 54 -22 60 53 60 57 0 69 -3 80 -21 9 -14 21 -19 40 -17
37 4 35 30 -3 40 -16 4 -50 13 -74 19 -59 14 -101 57 -101 102 0 89 115 139
246 106z m-276 -174 l0 -175 -70 0 -70 0 0 175 0 175 70 0 70 0 0 -175z
m-1660 -225 c0 -5 -12 -11 -27 -11 -24 -2 -25 -2 -5 -6 12 -2 22 -8 22 -13 0
-5 -10 -11 -22 -13 -20 -4 -19 -4 5 -6 43 -2 32 -21 -13 -21 l-40 0 0 40 0 40
40 0 c22 0 40 -4 40 -10z m166 -7 c13 -17 13 -17 14 0 0 10 8 17 20 17 17 0
20 -7 20 -40 l0 -40 -50 0 -50 0 0 40 c0 44 22 55 46 23z m257 5 c7 -21 -12
-48 -33 -48 -11 0 -20 -4 -20 -10 0 -5 -4 -10 -10 -10 -5 0 -10 18 -10 40 0
39 1 40 34 40 19 0 36 -6 39 -12z m203 -30 c0 -26 -4 -38 -13 -38 -7 0 -13 5
-13 10 0 6 -7 10 -15 10 -8 0 -15 -4 -15 -10 0 -5 -4 -10 -10 -10 -5 0 -10 18
-10 41 l0 40 37 -3 c36 -3 37 -5 39 -40z m194 32 c0 -5 -10 -11 -22 -11 l-23
-2 23 -4 c12 -2 22 -9 22 -14 0 -5 -10 -10 -22 -10 l-23 -2 23 -4 c35 -7 26
-23 -13 -23 -34 0 -35 1 -35 40 0 39 1 40 35 40 19 0 35 -4 35 -10z m198 -32
c2 -38 2 -38 -37 -38 -38 0 -40 1 -39 33 1 44 5 49 41 45 29 -3 32 -6 35 -40z
m191 11 c16 -46 16 -46 -34 -47 l-45 0 15 35 c8 20 15 37 15 39 0 2 9 4 19 4
12 0 23 -11 30 -31z m209 -9 c0 -39 -19 -55 -32 -27 -5 10 -7 10 -12 0 -3 -7
-12 -13 -20 -13 -10 0 -14 12 -14 40 0 40 0 40 39 40 40 0 40 0 39 -40z m152
0 c0 -29 -4 -40 -15 -40 -11 0 -15 11 -15 40 0 29 4 40 15 40 11 0 15 -11 15
-40z m195 4 c8 -20 15 -37 15 -39 0 -1 -20 -2 -45 -2 -51 0 -49 -1 -33 44 16
45 43 43 63 -3z m155 6 c0 -23 4 -30 20 -30 11 0 20 -4 20 -10 0 -5 -13 -10
-30 -10 -28 0 -30 2 -30 40 0 22 5 40 10 40 6 0 10 -13 10 -30z m-322 -247 c3
-19 -1 -23 -22 -23 -28 0 -41 14 -32 36 9 24 50 13 54 -13z m-1512 11 c15 -4
20 -11 17 -25 -5 -17 1 -19 57 -19 59 0 61 -1 54 -22 -4 -12 -17 -30 -30 -40
-12 -10 -26 -27 -29 -38 -4 -14 -15 -20 -35 -20 -27 0 -28 1 -20 36 9 39 -4
64 -33 64 -9 0 -17 4 -19 10 -6 19 -29 -7 -31 -36 -2 -26 1 -29 28 -29 21 -1
31 -6 33 -19 7 -36 -55 -49 -96 -20 -17 11 -22 25 -22 57 0 77 54 120 126 101z
m1414 -24 c0 -17 7 -20 46 -20 l46 0 -3 -40 c-2 -21 0 -42 4 -46 13 -13 7 -33
-12 -39 -33 -10 -51 5 -51 44 0 20 -5 43 -10 51 -6 10 -10 11 -10 3 0 -7 -7
-13 -15 -13 -8 0 -15 -7 -15 -15 0 -8 5 -15 10 -15 6 0 10 -11 10 -25 0 -18
-7 -26 -25 -31 -36 -9 -58 12 -53 53 2 18 1 33 -3 33 -4 0 -5 9 -2 20 3 11 9
20 14 20 5 0 9 6 9 14 0 13 16 22 48 25 6 0 12 -8 12 -19z m-821 -26 c9 -3 12
-16 9 -39 -2 -19 0 -36 5 -38 6 -2 5 -12 -2 -25 -9 -18 -18 -21 -34 -16 -29 9
-37 23 -31 54 4 22 3 22 -5 5 -5 -11 -12 -28 -15 -37 -3 -11 -15 -18 -32 -18
-25 0 -26 2 -20 38 5 36 -3 26 -18 -20 -3 -11 -15 -18 -29 -18 -22 0 -24 4
-24 60 l0 59 46 3 c50 3 128 -1 150 -8z m-341 -20 c2 -11 -4 -26 -12 -33 -12
-10 -13 -18 -5 -32 8 -16 5 -21 -16 -29 -38 -15 -53 -12 -76 11 -23 23 -20 60
9 92 24 26 96 20 100 -9z m127 5 c4 -12 1 -27 -8 -37 -11 -12 -13 -22 -6 -35
8 -14 5 -19 -16 -27 -38 -15 -53 -12 -76 11 -23 23 -20 60 8 92 24 26 90 23
98 -4z m375 1 c17 -32 -4 -85 -40 -100 -72 -30 -116 42 -62 103 22 25 88 23
102 -3z m120 -5 c0 -14 -4 -25 -8 -25 -5 0 -7 -13 -4 -29 5 -37 -25 -56 -75
-46 -29 5 -33 9 -27 28 4 12 11 24 15 25 5 2 6 8 3 13 -3 6 -3 21 0 35 6 21
12 24 51 24 41 0 45 -2 45 -25z m205 4 c4 -12 1 -27 -8 -37 -11 -12 -13 -22
-6 -35 8 -14 5 -19 -16 -27 -38 -15 -53 -12 -76 11 -23 23 -20 60 8 92 24 26
90 23 98 -4z m156 -34 c7 -57 -6 -81 -39 -71 -15 5 -22 17 -24 44 l-4 37 -10
-35 c-8 -27 -16 -36 -35 -38 -25 -3 -26 -1 -26 58 l0 61 66 -3 66 -3 6 -50z"/>
<path d="M1705 2516 c-13 -19 -15 -32 -8 -52 18 -54 67 -58 79 -8 17 66 -38
111 -71 60z"/>
<path d="M2310 2005 c0 -18 5 -25 20 -25 15 0 20 7 20 25 0 18 -5 25 -20 25
-15 0 -20 -7 -20 -25z"/>
<path d="M1550 2005 c0 -20 4 -26 18 -23 9 2 17 12 17 23 0 11 -8 21 -17 23
-14 3 -18 -3 -18 -23z"/>
<path d="M636 1638 c-44 -63 17 -154 68 -102 18 18 21 76 6 105 -14 26 -55 24
-74 -3z"/>
<path d="M1042 1658 c-22 -22 -13 -28 38 -28 28 0 50 4 50 8 0 16 -25 32 -50
32 -14 0 -31 -5 -38 -12z"/>
<path d="M1842 1658 c-22 -22 -12 -28 45 -28 55 0 56 0 38 20 -20 22 -64 27
-83 8z"/>
<path d="M1737 1014 c-4 -4 -7 -14 -7 -23 0 -11 3 -12 11 -4 6 6 10 16 7 23
-2 6 -7 8 -11 4z"/>
</g>
</svg>
